<mxfile host="app.diagrams.net" agent="Mozilla/5.0 (Windows NT 10.0; Win64; x64) AppleWebKit/537.36 (KHTML, like Gecko) Chrome/138.0.0.0 Safari/537.36" version="27.1.6">
  <diagram name="Page-1" id="wmcUtrAcUjHsRxr8eEw4">
    <mxGraphModel dx="1123" dy="644" grid="1" gridSize="10" guides="1" tooltips="1" connect="1" arrows="1" fold="1" page="1" pageScale="1" pageWidth="850" pageHeight="1100" math="0" shadow="0">
      <root>
        <mxCell id="0" />
        <mxCell id="1" parent="0" />
        <mxCell id="yhChUbMp0qMpFeuhbYxh-1" value="&lt;b&gt;&lt;font style=&quot;font-size: 14px;&quot;&gt;User Access Web Interface&lt;/font&gt;&lt;/b&gt;" style="rounded=0;whiteSpace=wrap;html=1;fillColor=#dae8fc;strokeColor=#6c8ebf;strokeWidth=3;" parent="1" vertex="1">
          <mxGeometry x="80" y="30" width="280" height="30" as="geometry" />
        </mxCell>
        <mxCell id="yhChUbMp0qMpFeuhbYxh-2" value="&lt;b&gt;&lt;font style=&quot;font-size: 16px;&quot;&gt;User Authentication&lt;/font&gt;&lt;/b&gt;" style="rounded=0;whiteSpace=wrap;html=1;fillColor=#d5e8d4;strokeColor=#82b366;strokeWidth=3;" parent="1" vertex="1">
          <mxGeometry x="130" y="110" width="160" height="30" as="geometry" />
        </mxCell>
        <mxCell id="yhChUbMp0qMpFeuhbYxh-3" value="&lt;b&gt;&lt;font style=&quot;font-size: 15px;&quot;&gt;Dashboard Landing Page&lt;/font&gt;&lt;/b&gt;" style="rounded=0;whiteSpace=wrap;html=1;fillColor=#dae8fc;strokeColor=#6c8ebf;strokeWidth=3;" parent="1" vertex="1">
          <mxGeometry x="117" y="180" width="190" height="30" as="geometry" />
        </mxCell>
        <mxCell id="yhChUbMp0qMpFeuhbYxh-4" value="&lt;b&gt;&lt;font style=&quot;font-size: 16px;&quot;&gt;Create New Cluster&lt;/font&gt;&lt;/b&gt;" style="rounded=0;whiteSpace=wrap;html=1;fillColor=#fff2cc;strokeColor=#d6b656;strokeWidth=3;" parent="1" vertex="1">
          <mxGeometry x="130" y="260" width="160" height="30" as="geometry" />
        </mxCell>
        <mxCell id="yhChUbMp0qMpFeuhbYxh-5" value="&lt;b&gt;&lt;font style=&quot;font-size: 16px;&quot;&gt;Enter Cluster Configuration&lt;/font&gt;&lt;/b&gt;" style="rounded=0;whiteSpace=wrap;html=1;fillColor=#dae8fc;strokeColor=#6c8ebf;strokeWidth=3;" parent="1" vertex="1">
          <mxGeometry x="108" y="320" width="220" height="30" as="geometry" />
        </mxCell>
        <mxCell id="yhChUbMp0qMpFeuhbYxh-6" value="&lt;b&gt;&lt;font style=&quot;font-size: 16px;&quot;&gt;Add Node Details&lt;/font&gt;&lt;/b&gt;" style="rounded=0;whiteSpace=wrap;html=1;fillColor=#dae8fc;strokeColor=#6c8ebf;strokeWidth=3;" parent="1" vertex="1">
          <mxGeometry x="130" y="380" width="160" height="30" as="geometry" />
        </mxCell>
        <mxCell id="yhChUbMp0qMpFeuhbYxh-59" value="" style="edgeStyle=orthogonalEdgeStyle;rounded=0;orthogonalLoop=1;jettySize=auto;html=1;" parent="1" source="yhChUbMp0qMpFeuhbYxh-7" target="yhChUbMp0qMpFeuhbYxh-8" edge="1">
          <mxGeometry relative="1" as="geometry" />
        </mxCell>
        <mxCell id="yhChUbMp0qMpFeuhbYxh-7" value="&lt;font style=&quot;font-size: 16px;&quot;&gt;&lt;b&gt;Add More&amp;nbsp;&lt;/b&gt;&lt;/font&gt;&lt;div&gt;&lt;font style=&quot;font-size: 16px;&quot;&gt;&lt;b&gt;Node?&lt;/b&gt;&lt;/font&gt;&lt;/div&gt;" style="rhombus;whiteSpace=wrap;html=1;fillColor=#ffe6cc;strokeColor=#d79b00;strokeWidth=3;" parent="1" vertex="1">
          <mxGeometry x="150" y="480" width="120" height="80" as="geometry" />
        </mxCell>
        <mxCell id="yhChUbMp0qMpFeuhbYxh-8" value="&lt;b&gt;&lt;font style=&quot;font-size: 16px;&quot;&gt;Check Connectivity&lt;/font&gt;&lt;/b&gt;" style="rounded=0;whiteSpace=wrap;html=1;fillColor=#f8cecc;strokeColor=#b85450;strokeWidth=2;" parent="1" vertex="1">
          <mxGeometry x="130" y="610" width="160" height="30" as="geometry" />
        </mxCell>
        <mxCell id="yhChUbMp0qMpFeuhbYxh-9" value="&lt;font style=&quot;font-size: 16px;&quot;&gt;&lt;b&gt;All Node&amp;nbsp;&lt;/b&gt;&lt;/font&gt;&lt;div&gt;&lt;font style=&quot;font-size: 16px;&quot;&gt;&lt;b&gt;Connected?&lt;/b&gt;&lt;/font&gt;&lt;/div&gt;" style="rhombus;whiteSpace=wrap;html=1;fillColor=#ffe6cc;strokeColor=#d79b00;" parent="1" vertex="1">
          <mxGeometry x="218" y="710" width="150" height="80" as="geometry" />
        </mxCell>
        <mxCell id="yhChUbMp0qMpFeuhbYxh-10" value="&lt;b&gt;&lt;font style=&quot;font-size: 16px;&quot;&gt;Display connection Error&lt;/font&gt;&lt;/b&gt;" style="rounded=0;whiteSpace=wrap;html=1;fillColor=#dae8fc;strokeColor=#6c8ebf;strokeWidth=3;" parent="1" vertex="1">
          <mxGeometry x="203" y="835" width="207" height="30" as="geometry" />
        </mxCell>
        <mxCell id="yhChUbMp0qMpFeuhbYxh-11" value="&lt;b&gt;&lt;font style=&quot;font-size: 16px;&quot;&gt;Review/ Edit Node Details&lt;/font&gt;&lt;/b&gt;" style="rounded=0;whiteSpace=wrap;html=1;fillColor=#dae8fc;strokeColor=#6c8ebf;strokeWidth=3;" parent="1" vertex="1">
          <mxGeometry x="60" y="920" width="225" height="30" as="geometry" />
        </mxCell>
        <mxCell id="yhChUbMp0qMpFeuhbYxh-13" value="&lt;b&gt;&lt;font style=&quot;font-size: 16px;&quot;&gt;Genereate Terraform Script&lt;/font&gt;&lt;/b&gt;" style="rounded=0;whiteSpace=wrap;html=1;fillColor=#dae8fc;strokeColor=#6c8ebf;strokeWidth=3;" parent="1" vertex="1">
          <mxGeometry x="520" y="70" width="220" height="30" as="geometry" />
        </mxCell>
        <mxCell id="yhChUbMp0qMpFeuhbYxh-14" value="&lt;b&gt;&lt;font style=&quot;font-size: 16px;&quot;&gt;Deploy K3s Cluster&lt;/font&gt;&lt;/b&gt;" style="rounded=0;whiteSpace=wrap;html=1;fillColor=#dae8fc;strokeColor=#6c8ebf;strokeWidth=3;" parent="1" vertex="1">
          <mxGeometry x="550" y="170" width="160" height="30" as="geometry" />
        </mxCell>
        <mxCell id="yhChUbMp0qMpFeuhbYxh-15" value="&lt;b&gt;&lt;font style=&quot;font-size: 16px;&quot;&gt;Install Monitoring Toos&lt;/font&gt;&lt;/b&gt;" style="rounded=0;whiteSpace=wrap;html=1;fillColor=#dae8fc;strokeColor=#6c8ebf;strokeWidth=3;" parent="1" vertex="1">
          <mxGeometry x="520" y="250" width="220" height="30" as="geometry" />
        </mxCell>
        <mxCell id="yhChUbMp0qMpFeuhbYxh-16" value="&lt;b&gt;&lt;font style=&quot;font-size: 16px;&quot;&gt;Cluster Health Dashboard&lt;/font&gt;&lt;/b&gt;" style="rounded=0;whiteSpace=wrap;html=1;fillColor=#d5e8d4;strokeColor=#82b366;strokeWidth=3;" parent="1" vertex="1">
          <mxGeometry x="530" y="310" width="200" height="30" as="geometry" />
        </mxCell>
        <mxCell id="yhChUbMp0qMpFeuhbYxh-17" value="&lt;b&gt;&lt;font style=&quot;font-size: 16px;&quot;&gt;Real Time Monitoring&lt;/font&gt;&lt;/b&gt;" style="rounded=0;whiteSpace=wrap;html=1;fillColor=#dae8fc;strokeColor=#6c8ebf;strokeWidth=3;" parent="1" vertex="1">
          <mxGeometry x="536" y="380" width="190" height="30" as="geometry" />
        </mxCell>
        <mxCell id="yhChUbMp0qMpFeuhbYxh-19" value="&lt;b&gt;&lt;font style=&quot;font-size: 16px;&quot;&gt;ML Based Fault Detection&lt;/font&gt;&lt;/b&gt;" style="rounded=0;whiteSpace=wrap;html=1;fillColor=#dae8fc;strokeColor=#6c8ebf;strokeWidth=3;" parent="1" vertex="1">
          <mxGeometry x="630" y="460" width="200" height="30" as="geometry" />
        </mxCell>
        <mxCell id="yhChUbMp0qMpFeuhbYxh-66" value="" style="edgeStyle=orthogonalEdgeStyle;rounded=0;orthogonalLoop=1;jettySize=auto;html=1;" parent="1" source="yhChUbMp0qMpFeuhbYxh-20" target="yhChUbMp0qMpFeuhbYxh-21" edge="1">
          <mxGeometry relative="1" as="geometry" />
        </mxCell>
        <mxCell id="yhChUbMp0qMpFeuhbYxh-20" value="&lt;b&gt;&lt;font style=&quot;font-size: 16px;&quot;&gt;Falut Detected?&lt;/font&gt;&lt;/b&gt;" style="rhombus;whiteSpace=wrap;html=1;fillColor=#ffe6cc;strokeColor=#d79b00;strokeWidth=3;" parent="1" vertex="1">
          <mxGeometry x="690" y="530" width="150" height="80" as="geometry" />
        </mxCell>
        <mxCell id="yhChUbMp0qMpFeuhbYxh-21" value="&lt;b&gt;&lt;font style=&quot;font-size: 16px;&quot;&gt;Alert Notification&lt;/font&gt;&lt;/b&gt;" style="rounded=0;whiteSpace=wrap;html=1;fillColor=#a20025;strokeColor=#6F0000;fontColor=#ffffff;strokeWidth=3;" parent="1" vertex="1">
          <mxGeometry x="683" y="670" width="160" height="30" as="geometry" />
        </mxCell>
        <mxCell id="yhChUbMp0qMpFeuhbYxh-22" value="&lt;b&gt;&lt;font style=&quot;font-size: 16px;&quot;&gt;Display Falut Details&lt;/font&gt;&lt;/b&gt;" style="rounded=0;whiteSpace=wrap;html=1;fillColor=#dae8fc;strokeColor=#6c8ebf;strokeWidth=3;" parent="1" vertex="1">
          <mxGeometry x="673" y="750" width="160" height="30" as="geometry" />
        </mxCell>
        <mxCell id="yhChUbMp0qMpFeuhbYxh-23" value="&lt;b&gt;&lt;font style=&quot;font-size: 17px;&quot;&gt;Suggested Action&lt;/font&gt;&lt;/b&gt;" style="rounded=0;whiteSpace=wrap;html=1;fillColor=#dae8fc;strokeColor=#6c8ebf;strokeWidth=3;" parent="1" vertex="1">
          <mxGeometry x="580" y="880" width="160" height="30" as="geometry" />
        </mxCell>
        <mxCell id="yhChUbMp0qMpFeuhbYxh-24" value="&lt;b&gt;&lt;font style=&quot;font-size: 17px;&quot;&gt;Contiue Monitoring&lt;/font&gt;&lt;/b&gt;" style="rounded=0;whiteSpace=wrap;html=1;fillColor=#60a917;strokeColor=#2D7600;fontColor=#ffffff;strokeWidth=3;" parent="1" vertex="1">
          <mxGeometry x="500" y="670" width="160" height="30" as="geometry" />
        </mxCell>
        <mxCell id="yhChUbMp0qMpFeuhbYxh-25" value="" style="endArrow=classic;html=1;rounded=0;exitX=0.425;exitY=1.041;exitDx=0;exitDy=0;exitPerimeter=0;entryX=0.425;entryY=0.089;entryDx=0;entryDy=0;entryPerimeter=0;strokeWidth=3;" parent="1" source="yhChUbMp0qMpFeuhbYxh-1" target="yhChUbMp0qMpFeuhbYxh-2" edge="1">
          <mxGeometry width="50" height="50" relative="1" as="geometry">
            <mxPoint x="390" y="310" as="sourcePoint" />
            <mxPoint x="200" y="100" as="targetPoint" />
          </mxGeometry>
        </mxCell>
        <mxCell id="yhChUbMp0qMpFeuhbYxh-26" value="" style="endArrow=classic;html=1;rounded=0;exitX=0.407;exitY=1.2;exitDx=0;exitDy=0;exitPerimeter=0;entryX=0.407;entryY=0.01;entryDx=0;entryDy=0;entryPerimeter=0;strokeWidth=3;" parent="1" source="yhChUbMp0qMpFeuhbYxh-2" target="yhChUbMp0qMpFeuhbYxh-3" edge="1">
          <mxGeometry width="50" height="50" relative="1" as="geometry">
            <mxPoint x="390" y="380" as="sourcePoint" />
            <mxPoint x="440" y="330" as="targetPoint" />
          </mxGeometry>
        </mxCell>
        <mxCell id="yhChUbMp0qMpFeuhbYxh-27" value="" style="endArrow=classic;html=1;rounded=0;entryX=0.431;entryY=0.2;entryDx=0;entryDy=0;entryPerimeter=0;exitX=0.431;exitY=1.057;exitDx=0;exitDy=0;exitPerimeter=0;strokeWidth=3;" parent="1" source="yhChUbMp0qMpFeuhbYxh-3" target="yhChUbMp0qMpFeuhbYxh-4" edge="1">
          <mxGeometry width="50" height="50" relative="1" as="geometry">
            <mxPoint x="196" y="209" as="sourcePoint" />
            <mxPoint x="440" y="330" as="targetPoint" />
          </mxGeometry>
        </mxCell>
        <mxCell id="yhChUbMp0qMpFeuhbYxh-28" value="" style="endArrow=classic;html=1;rounded=0;exitX=0.425;exitY=0.994;exitDx=0;exitDy=0;exitPerimeter=0;entryX=0.407;entryY=-0.086;entryDx=0;entryDy=0;entryPerimeter=0;strokeWidth=3;" parent="1" source="yhChUbMp0qMpFeuhbYxh-4" target="yhChUbMp0qMpFeuhbYxh-5" edge="1">
          <mxGeometry width="50" height="50" relative="1" as="geometry">
            <mxPoint x="390" y="380" as="sourcePoint" />
            <mxPoint x="440" y="330" as="targetPoint" />
          </mxGeometry>
        </mxCell>
        <mxCell id="yhChUbMp0qMpFeuhbYxh-29" value="" style="endArrow=classic;html=1;rounded=0;exitX=0.412;exitY=1.089;exitDx=0;exitDy=0;exitPerimeter=0;entryX=0.425;entryY=-0.022;entryDx=0;entryDy=0;entryPerimeter=0;strokeWidth=3;" parent="1" source="yhChUbMp0qMpFeuhbYxh-5" target="yhChUbMp0qMpFeuhbYxh-6" edge="1">
          <mxGeometry width="50" height="50" relative="1" as="geometry">
            <mxPoint x="390" y="380" as="sourcePoint" />
            <mxPoint x="440" y="330" as="targetPoint" />
          </mxGeometry>
        </mxCell>
        <mxCell id="yhChUbMp0qMpFeuhbYxh-34" value="" style="endArrow=classic;html=1;rounded=0;exitX=0.75;exitY=1;exitDx=0;exitDy=0;entryX=1;entryY=0.5;entryDx=0;entryDy=0;strokeWidth=3;" parent="1" source="yhChUbMp0qMpFeuhbYxh-6" target="yhChUbMp0qMpFeuhbYxh-7" edge="1">
          <mxGeometry width="50" height="50" relative="1" as="geometry">
            <mxPoint x="390" y="470" as="sourcePoint" />
            <mxPoint x="440" y="420" as="targetPoint" />
            <Array as="points">
              <mxPoint x="290" y="460" />
            </Array>
          </mxGeometry>
        </mxCell>
        <mxCell id="yhChUbMp0qMpFeuhbYxh-41" value="" style="endArrow=classic;html=1;rounded=0;exitX=0;exitY=0.5;exitDx=0;exitDy=0;entryX=0.25;entryY=1;entryDx=0;entryDy=0;strokeWidth=3;" parent="1" source="yhChUbMp0qMpFeuhbYxh-7" target="yhChUbMp0qMpFeuhbYxh-6" edge="1">
          <mxGeometry relative="1" as="geometry">
            <mxPoint x="370" y="440" as="sourcePoint" />
            <mxPoint x="470" y="440" as="targetPoint" />
            <Array as="points">
              <mxPoint x="130" y="460" />
            </Array>
          </mxGeometry>
        </mxCell>
        <mxCell id="yhChUbMp0qMpFeuhbYxh-42" value="&lt;b&gt;&lt;font style=&quot;font-size: 17px;&quot;&gt;Yes&lt;/font&gt;&lt;/b&gt;" style="edgeLabel;resizable=0;html=1;;align=center;verticalAlign=middle;" parent="yhChUbMp0qMpFeuhbYxh-41" connectable="0" vertex="1">
          <mxGeometry relative="1" as="geometry" />
        </mxCell>
        <mxCell id="yhChUbMp0qMpFeuhbYxh-44" value="" style="endArrow=classic;html=1;rounded=0;entryX=0.5;entryY=0;entryDx=0;entryDy=0;exitX=0.5;exitY=1;exitDx=0;exitDy=0;strokeWidth=3;" parent="1" source="yhChUbMp0qMpFeuhbYxh-7" target="yhChUbMp0qMpFeuhbYxh-8" edge="1">
          <mxGeometry relative="1" as="geometry">
            <mxPoint x="300" y="540" as="sourcePoint" />
            <mxPoint x="180" y="420" as="targetPoint" />
            <Array as="points" />
          </mxGeometry>
        </mxCell>
        <mxCell id="yhChUbMp0qMpFeuhbYxh-45" value="&lt;font style=&quot;font-size: 15px;&quot;&gt;&lt;b&gt;No&lt;/b&gt;&lt;/font&gt;" style="edgeLabel;resizable=0;html=1;;align=center;verticalAlign=middle;" parent="yhChUbMp0qMpFeuhbYxh-44" connectable="0" vertex="1">
          <mxGeometry relative="1" as="geometry" />
        </mxCell>
        <mxCell id="yhChUbMp0qMpFeuhbYxh-46" value="" style="endArrow=classic;html=1;rounded=0;exitX=1;exitY=1;exitDx=0;exitDy=0;entryX=0.5;entryY=0;entryDx=0;entryDy=0;strokeWidth=3;" parent="1" source="yhChUbMp0qMpFeuhbYxh-8" target="yhChUbMp0qMpFeuhbYxh-9" edge="1">
          <mxGeometry width="50" height="50" relative="1" as="geometry">
            <mxPoint x="370" y="520" as="sourcePoint" />
            <mxPoint x="420" y="470" as="targetPoint" />
          </mxGeometry>
        </mxCell>
        <mxCell id="yhChUbMp0qMpFeuhbYxh-47" value="" style="endArrow=classic;html=1;rounded=0;exitX=0.5;exitY=1;exitDx=0;exitDy=0;strokeWidth=3;" parent="1" source="yhChUbMp0qMpFeuhbYxh-9" edge="1">
          <mxGeometry relative="1" as="geometry">
            <mxPoint x="220" y="570" as="sourcePoint" />
            <mxPoint x="293" y="830" as="targetPoint" />
            <Array as="points" />
          </mxGeometry>
        </mxCell>
        <mxCell id="yhChUbMp0qMpFeuhbYxh-48" value="&lt;font style=&quot;font-size: 15px;&quot;&gt;&lt;b&gt;No&lt;/b&gt;&lt;/font&gt;" style="edgeLabel;resizable=0;html=1;;align=center;verticalAlign=middle;" parent="yhChUbMp0qMpFeuhbYxh-47" connectable="0" vertex="1">
          <mxGeometry relative="1" as="geometry" />
        </mxCell>
        <mxCell id="yhChUbMp0qMpFeuhbYxh-49" value="" style="endArrow=classic;html=1;rounded=0;exitX=0.5;exitY=1;exitDx=0;exitDy=0;entryX=1;entryY=0.25;entryDx=0;entryDy=0;strokeWidth=3;" parent="1" source="yhChUbMp0qMpFeuhbYxh-10" target="yhChUbMp0qMpFeuhbYxh-11" edge="1">
          <mxGeometry width="50" height="50" relative="1" as="geometry">
            <mxPoint x="320" y="680" as="sourcePoint" />
            <mxPoint x="370" y="630" as="targetPoint" />
            <Array as="points">
              <mxPoint x="307" y="928" />
            </Array>
          </mxGeometry>
        </mxCell>
        <mxCell id="yhChUbMp0qMpFeuhbYxh-50" value="" style="endArrow=classic;html=1;rounded=0;exitX=0;exitY=0.5;exitDx=0;exitDy=0;entryX=0;entryY=0.75;entryDx=0;entryDy=0;strokeWidth=3;" parent="1" source="yhChUbMp0qMpFeuhbYxh-11" target="yhChUbMp0qMpFeuhbYxh-8" edge="1">
          <mxGeometry width="50" height="50" relative="1" as="geometry">
            <mxPoint x="320" y="680" as="sourcePoint" />
            <mxPoint x="370" y="630" as="targetPoint" />
            <Array as="points">
              <mxPoint x="50" y="935" />
              <mxPoint x="50" y="633" />
            </Array>
          </mxGeometry>
        </mxCell>
        <mxCell id="yhChUbMp0qMpFeuhbYxh-51" value="" style="endArrow=classic;html=1;rounded=0;exitX=1;exitY=0.5;exitDx=0;exitDy=0;entryX=0.5;entryY=0;entryDx=0;entryDy=0;strokeWidth=3;" parent="1" source="yhChUbMp0qMpFeuhbYxh-9" target="yhChUbMp0qMpFeuhbYxh-13" edge="1">
          <mxGeometry relative="1" as="geometry">
            <mxPoint x="170" y="527" as="sourcePoint" />
            <mxPoint x="500" y="270" as="targetPoint" />
            <Array as="points">
              <mxPoint x="440" y="750" />
              <mxPoint x="440" y="20" />
              <mxPoint x="630" y="20" />
            </Array>
          </mxGeometry>
        </mxCell>
        <mxCell id="yhChUbMp0qMpFeuhbYxh-52" value="&lt;b&gt;&lt;font style=&quot;font-size: 17px;&quot;&gt;Yes&lt;/font&gt;&lt;/b&gt;" style="edgeLabel;resizable=0;html=1;;align=center;verticalAlign=middle;" parent="yhChUbMp0qMpFeuhbYxh-51" connectable="0" vertex="1">
          <mxGeometry relative="1" as="geometry" />
        </mxCell>
        <mxCell id="yhChUbMp0qMpFeuhbYxh-53" value="" style="endArrow=classic;html=1;rounded=0;exitX=0.5;exitY=1;exitDx=0;exitDy=0;entryX=0.5;entryY=0;entryDx=0;entryDy=0;strokeWidth=3;" parent="1" source="yhChUbMp0qMpFeuhbYxh-13" target="yhChUbMp0qMpFeuhbYxh-14" edge="1">
          <mxGeometry width="50" height="50" relative="1" as="geometry">
            <mxPoint x="320" y="310" as="sourcePoint" />
            <mxPoint x="640" y="170" as="targetPoint" />
          </mxGeometry>
        </mxCell>
        <mxCell id="yhChUbMp0qMpFeuhbYxh-54" value="" style="endArrow=classic;html=1;rounded=0;exitX=0.5;exitY=1;exitDx=0;exitDy=0;entryX=0.5;entryY=0;entryDx=0;entryDy=0;strokeWidth=3;" parent="1" source="yhChUbMp0qMpFeuhbYxh-14" target="yhChUbMp0qMpFeuhbYxh-15" edge="1">
          <mxGeometry width="50" height="50" relative="1" as="geometry">
            <mxPoint x="320" y="310" as="sourcePoint" />
            <mxPoint x="370" y="260" as="targetPoint" />
          </mxGeometry>
        </mxCell>
        <mxCell id="yhChUbMp0qMpFeuhbYxh-55" value="" style="endArrow=classic;html=1;rounded=0;exitX=0.5;exitY=1;exitDx=0;exitDy=0;entryX=0.5;entryY=0;entryDx=0;entryDy=0;strokeWidth=3;" parent="1" source="yhChUbMp0qMpFeuhbYxh-15" target="yhChUbMp0qMpFeuhbYxh-16" edge="1">
          <mxGeometry width="50" height="50" relative="1" as="geometry">
            <mxPoint x="320" y="310" as="sourcePoint" />
            <mxPoint x="370" y="260" as="targetPoint" />
          </mxGeometry>
        </mxCell>
        <mxCell id="yhChUbMp0qMpFeuhbYxh-56" value="" style="endArrow=classic;html=1;rounded=0;exitX=0.5;exitY=1;exitDx=0;exitDy=0;entryX=0.5;entryY=0;entryDx=0;entryDy=0;strokeWidth=3;" parent="1" source="yhChUbMp0qMpFeuhbYxh-16" target="yhChUbMp0qMpFeuhbYxh-17" edge="1">
          <mxGeometry width="50" height="50" relative="1" as="geometry">
            <mxPoint x="320" y="310" as="sourcePoint" />
            <mxPoint x="370" y="260" as="targetPoint" />
          </mxGeometry>
        </mxCell>
        <mxCell id="yhChUbMp0qMpFeuhbYxh-57" value="" style="endArrow=classic;html=1;rounded=0;exitX=1;exitY=0.5;exitDx=0;exitDy=0;strokeWidth=3;" parent="1" source="yhChUbMp0qMpFeuhbYxh-17" edge="1">
          <mxGeometry width="50" height="50" relative="1" as="geometry">
            <mxPoint x="320" y="390" as="sourcePoint" />
            <mxPoint x="760" y="456" as="targetPoint" />
            <Array as="points">
              <mxPoint x="760" y="395" />
            </Array>
          </mxGeometry>
        </mxCell>
        <mxCell id="yhChUbMp0qMpFeuhbYxh-58" value="" style="endArrow=classic;html=1;rounded=0;entryX=0.5;entryY=0;entryDx=0;entryDy=0;strokeWidth=3;" parent="1" target="yhChUbMp0qMpFeuhbYxh-20" edge="1">
          <mxGeometry width="50" height="50" relative="1" as="geometry">
            <mxPoint x="762" y="490" as="sourcePoint" />
            <mxPoint x="370" y="550" as="targetPoint" />
          </mxGeometry>
        </mxCell>
        <mxCell id="yhChUbMp0qMpFeuhbYxh-60" value="" style="endArrow=classic;html=1;rounded=0;entryX=0.5;entryY=0;entryDx=0;entryDy=0;exitX=0.5;exitY=1;exitDx=0;exitDy=0;strokeWidth=3;" parent="1" source="yhChUbMp0qMpFeuhbYxh-20" target="yhChUbMp0qMpFeuhbYxh-21" edge="1">
          <mxGeometry relative="1" as="geometry">
            <mxPoint x="220" y="570" as="sourcePoint" />
            <mxPoint x="220" y="620" as="targetPoint" />
            <Array as="points" />
          </mxGeometry>
        </mxCell>
        <mxCell id="yhChUbMp0qMpFeuhbYxh-61" value="&lt;b&gt;&lt;font style=&quot;font-size: 16px;&quot;&gt;YES&lt;/font&gt;&lt;/b&gt;" style="edgeLabel;resizable=0;html=1;;align=center;verticalAlign=middle;" parent="yhChUbMp0qMpFeuhbYxh-60" connectable="0" vertex="1">
          <mxGeometry relative="1" as="geometry" />
        </mxCell>
        <mxCell id="yhChUbMp0qMpFeuhbYxh-63" value="" style="endArrow=classic;html=1;rounded=0;entryX=0.868;entryY=0.121;entryDx=0;entryDy=0;exitX=0;exitY=0.5;exitDx=0;exitDy=0;entryPerimeter=0;strokeWidth=3;" parent="1" source="yhChUbMp0qMpFeuhbYxh-20" target="yhChUbMp0qMpFeuhbYxh-24" edge="1">
          <mxGeometry relative="1" as="geometry">
            <mxPoint x="772" y="620" as="sourcePoint" />
            <mxPoint x="773" y="680" as="targetPoint" />
            <Array as="points">
              <mxPoint x="639" y="570" />
            </Array>
          </mxGeometry>
        </mxCell>
        <mxCell id="yhChUbMp0qMpFeuhbYxh-64" value="&lt;b&gt;&lt;font style=&quot;font-size: 14px;&quot;&gt;NO&lt;/font&gt;&lt;/b&gt;" style="edgeLabel;resizable=0;html=1;;align=center;verticalAlign=middle;" parent="yhChUbMp0qMpFeuhbYxh-63" connectable="0" vertex="1">
          <mxGeometry relative="1" as="geometry" />
        </mxCell>
        <mxCell id="yhChUbMp0qMpFeuhbYxh-67" value="" style="endArrow=classic;html=1;rounded=0;exitX=0.5;exitY=1;exitDx=0;exitDy=0;entryX=0.565;entryY=-0.038;entryDx=0;entryDy=0;entryPerimeter=0;strokeWidth=3;" parent="1" source="yhChUbMp0qMpFeuhbYxh-21" target="yhChUbMp0qMpFeuhbYxh-22" edge="1">
          <mxGeometry width="50" height="50" relative="1" as="geometry">
            <mxPoint x="320" y="600" as="sourcePoint" />
            <mxPoint x="370" y="550" as="targetPoint" />
          </mxGeometry>
        </mxCell>
        <mxCell id="yhChUbMp0qMpFeuhbYxh-68" value="" style="endArrow=classic;html=1;rounded=0;exitX=0.75;exitY=1;exitDx=0;exitDy=0;entryX=1;entryY=0.5;entryDx=0;entryDy=0;strokeWidth=3;" parent="1" source="yhChUbMp0qMpFeuhbYxh-22" target="yhChUbMp0qMpFeuhbYxh-23" edge="1">
          <mxGeometry width="50" height="50" relative="1" as="geometry">
            <mxPoint x="320" y="730" as="sourcePoint" />
            <mxPoint x="370" y="680" as="targetPoint" />
            <Array as="points">
              <mxPoint x="793" y="895" />
            </Array>
          </mxGeometry>
        </mxCell>
        <mxCell id="yhChUbMp0qMpFeuhbYxh-69" value="" style="endArrow=classic;html=1;rounded=0;exitX=0;exitY=0.5;exitDx=0;exitDy=0;entryX=0;entryY=0.75;entryDx=0;entryDy=0;strokeWidth=3;" parent="1" source="yhChUbMp0qMpFeuhbYxh-23" target="yhChUbMp0qMpFeuhbYxh-17" edge="1">
          <mxGeometry width="50" height="50" relative="1" as="geometry">
            <mxPoint x="320" y="730" as="sourcePoint" />
            <mxPoint x="370" y="680" as="targetPoint" />
            <Array as="points">
              <mxPoint x="480" y="895" />
              <mxPoint x="480" y="403" />
            </Array>
          </mxGeometry>
        </mxCell>
      </root>
    </mxGraphModel>
  </diagram>
</mxfile>
